{"glyphs":{":":{"x_min":0,"x_max":275,"ha":275,"o":"m 224 368 q 224 332 199 306 q 174 281 138 281 q 102 281 77 306 q 52 331 52 368 q 52 405 77 429 q 102 454 138 454 q 174 454 199 429 q 224 405 224 368 z m 224 81 q 224 44 199 19 q 174 -6 138 -6 q 102 -6 77 19 q 52 44 52 81 q 52 118 77 142 q 102 167 138 167 q 174 167 199 142 q 224 118 224 81 z"},"$":{"x_min":0,"x_max":440,"ha":440,"o":"m 18 84 l 75 183 q 104 151 136 135 q 167 118 198 118 q 238 118 263 142 q 288 165 288 202 q 288 256 197 305 q 173 318 161 325 q 86 368 54 413 q 22 459 22 520 q 22 587 54 634 q 85 681 145 701 l 145 791 l 187 791 l 187 709 q 188 709 190 709 q 207 711 216 711 q 220 711 226 710 q 231 710 238 709 l 238 791 l 280 791 l 280 704 q 317 695 345 679 q 373 662 394 636 l 327 540 q 299 565 271 578 q 244 591 216 591 q 187 591 167 573 q 148 555 148 527 q 148 479 242 431 q 250 427 254 425 q 348 378 381 332 q 414 286 414 212 q 414 138 378 84 q 342 30 280 12 l 280 -89 l 238 -89 l 238 5 q 230 3 222 2 q 213 1 204 1 q 197 1 194 1 q 190 1 187 2 l 187 -89 l 145 -89 l 145 9 q 111 12 79 31 q 47 49 18 84 z"},"?":{"x_min":0,"x_max":431,"ha":431,"o":"m 141 225 l 141 391 q 196 394 220 420 q 245 446 245 503 q 245 549 233 571 q 222 593 197 593 q 176 593 165 574 q 154 556 154 519 l 154 514 l 22 514 l 22 531 q 22 625 68 674 q 114 722 204 722 q 295 722 344 666 q 392 610 392 503 q 392 422 363 377 q 334 333 275 320 l 275 225 z m 294 77 q 294 40 269 16 q 245 -9 208 -9 q 171 -9 147 16 q 122 40 122 77 q 122 114 147 138 q 172 163 208 163 q 244 163 269 138 q 294 114 294 77 z"},"<":{"x_min":0,"x_max":833,"ha":833,"o":"m 704 574 l 704 484 l 248 298 l 704 112 l 704 23 l 129 259 l 129 337 z"},"'":{"x_min":0,"x_max":163,"ha":163,"o":"m 42 701 l 122 701 l 122 429 l 42 429 z"},"=":{"x_min":0,"x_max":833,"ha":833,"o":"m 124 238 l 709 238 l 709 157 l 124 157 z m 124 440 l 709 440 l 709 358 l 124 358 z"},"a":{"x_min":0,"x_max":453,"ha":453,"o":"m 279 247 q 279 312 263 344 q 248 376 216 376 q 187 376 174 345 q 161 315 161 246 q 161 178 176 144 q 190 110 219 110 q 250 110 265 143 q 279 175 279 247 z m 403 0 l 279 0 l 279 71 q 258 31 231 11 q 204 -9 171 -9 q 103 -9 66 55 q 30 118 30 239 q 30 356 67 420 q 104 484 172 484 q 204 484 230 465 q 256 446 279 406 l 279 479 l 403 479 z"},"L":{"x_min":0,"x_max":359,"ha":359,"o":"m 56 0 l 56 713 l 197 713 l 197 139 l 359 139 l 359 0 z"},"3":{"x_min":0,"x_max":440,"ha":440,"o":"m 24 204 l 143 204 l 143 196 q 143 154 157 133 q 172 111 199 111 q 229 111 246 138 q 262 165 262 214 q 262 271 241 295 q 220 319 172 319 q 169 319 164 318 q 158 318 155 318 l 155 435 l 164 435 q 222 435 247 456 q 272 477 272 525 q 272 562 257 582 q 243 603 217 603 q 190 603 176 583 q 162 562 162 522 l 162 514 l 47 514 l 47 531 q 47 624 92 673 q 138 722 224 722 q 304 722 347 672 q 390 622 390 528 q 390 463 363 425 q 335 387 284 380 l 284 371 q 349 358 380 317 q 412 275 412 204 q 412 104 357 47 q 301 -10 205 -10 q 118 -10 71 41 q 23 92 23 185 q 23 188 23 194 q 24 200 24 204 z"},";":{"x_min":0,"x_max":275,"ha":275,"o":"m -14 -137 l 66 159 l 207 159 l 86 -137 z m 224 368 q 224 332 199 306 q 174 281 138 281 q 102 281 77 306 q 52 331 52 368 q 52 405 77 429 q 102 454 138 454 q 174 454 199 429 q 224 405 224 368 z"},"J":{"x_min":0,"x_max":315,"ha":315,"o":"m 3 7 l 3 136 q 20 127 33 123 q 46 119 57 119 q 93 119 106 145 q 119 171 119 280 l 119 713 l 263 713 l 263 216 q 263 143 255 110 q 248 76 229 52 q 205 21 170 6 q 135 -10 90 -10 q 64 -10 42 -6 q 21 -1 3 7 z"},"V":{"x_min":0,"x_max":486,"ha":486,"o":"m 184 0 l -19 713 l 125 713 l 209 390 q 221 343 230 289 q 238 235 243 176 q 247 231 255 284 q 263 337 275 387 l 357 713 l 505 713 l 303 0 z"},"\"":{"x_min":0,"x_max":314,"ha":314,"o":"m 193 701 l 273 701 l 273 429 l 193 429 z m 42 701 l 122 701 l 122 429 l 42 429 z"},"7":{"x_min":0,"x_max":440,"ha":440,"o":"m 44 0 l 269 595 l 54 595 l 54 713 l 444 713 l 185 0 z"},"S":{"x_min":0,"x_max":384,"ha":384,"o":"m 34 25 l 34 173 q 61 149 87 138 q 113 126 139 126 q 175 126 196 145 q 217 164 217 197 q 217 237 161 285 q 145 298 137 305 q 72 364 47 410 q 23 457 23 516 q 23 608 75 665 q 127 722 211 722 q 241 722 270 714 q 299 705 331 687 l 331 561 q 293 579 273 586 q 252 593 236 593 q 205 593 186 573 q 166 554 166 523 q 166 496 181 472 q 195 448 249 402 q 321 340 341 300 q 362 259 362 201 q 362 104 307 48 q 252 -9 157 -9 q 121 -9 91 0 q 60 8 34 25 z"},"}":{"x_min":0,"x_max":500,"ha":500,"o":"m 74 721 l 96 721 q 152 721 184 716 q 215 710 237 697 q 265 681 276 650 q 287 620 287 550 l 287 429 q 287 359 312 330 q 338 302 400 302 q 403 302 410 302 q 417 303 421 303 l 421 216 q 417 216 410 216 q 403 217 400 217 q 338 217 313 188 q 287 159 287 89 l 287 -32 q 287 -102 276 -132 q 265 -162 237 -178 q 216 -191 184 -197 q 152 -202 96 -202 l 74 -202 l 74 -116 q 78 -116 85 -117 q 93 -117 96 -117 q 149 -117 168 -97 q 187 -76 187 -11 l 187 106 q 187 181 209 213 q 231 245 287 259 q 231 272 209 304 q 187 336 187 412 l 187 530 q 187 594 168 615 q 150 635 97 635 q 94 635 86 634 q 78 634 74 634 z"},"Z":{"x_min":0,"x_max":428,"ha":428,"o":"m -8 0 l 222 582 l 26 582 l 26 713 l 414 713 l 187 139 l 394 139 l 394 0 z"},"x":{"x_min":0,"x_max":370,"ha":370,"o":"m -6 0 l 116 257 l 2 479 l 129 479 l 169 399 q 177 383 181 370 q 185 357 186 344 q 188 357 192 371 q 197 385 204 400 l 241 479 l 372 479 l 251 259 l 376 0 l 244 0 l 201 109 q 196 122 193 138 q 189 154 186 174 q 183 155 179 139 q 175 123 169 110 l 122 0 z"},")":{"x_min":0,"x_max":277,"ha":277,"o":"m 16 -187 q 67 -79 93 35 q 118 149 118 271 q 118 398 93 511 q 67 625 16 730 l 126 760 q 182 644 209 522 q 237 400 237 271 q 237 144 209 23 q 182 -97 126 -217 z"},"&":{"x_min":0,"x_max":545,"ha":545,"o":"m 300 144 l 211 285 q 183 268 171 250 q 159 232 159 209 q 159 172 181 148 q 204 123 236 123 q 250 123 265 128 q 281 133 300 144 z m 239 459 l 254 472 q 272 488 282 507 q 292 527 292 546 q 292 567 281 581 q 270 594 253 594 q 231 594 218 580 q 204 565 204 542 q 204 530 208 517 q 211 503 218 493 z m 359 50 q 331 22 298 9 q 265 -5 227 -5 q 144 -5 88 56 q 32 117 32 205 q 32 259 61 307 q 89 355 144 393 q 113 444 101 478 q 89 512 89 543 q 89 614 135 657 q 181 699 258 699 q 326 699 370 658 q 413 617 413 552 q 413 501 384 454 q 354 406 299 366 l 389 223 l 460 299 l 532 198 l 451 125 l 531 0 l 390 0 z"},"_":{"x_min":0,"x_max":500,"ha":500,"o":"m 0 -152 l 500 -152 l 500 -236 l 0 -236 z"},"v":{"x_min":0,"x_max":377,"ha":377,"o":"m 124 0 l 1 479 l 129 479 l 170 263 q 174 240 179 205 q 184 169 188 122 q 192 167 197 203 q 202 238 206 263 l 248 479 l 376 479 l 253 0 z"},"O":{"x_min":0,"x_max":565,"ha":565,"o":"m 282 127 q 337 127 364 184 q 391 241 391 356 q 391 472 364 529 q 337 586 282 586 q 228 586 201 529 q 174 472 174 356 q 174 240 201 184 q 228 127 282 127 z m 533 346 q 533 183 465 87 q 396 -9 282 -9 q 164 -9 98 88 q 32 184 32 356 q 32 527 99 625 q 166 722 282 722 q 399 722 466 623 q 533 523 533 346 z"},"(":{"x_min":0,"x_max":277,"ha":277,"o":"m 260 -187 l 151 -217 q 94 -96 67 24 q 39 145 39 271 q 39 400 67 522 q 95 644 151 760 l 260 730 q 208 624 183 510 q 158 397 158 271 q 158 150 183 37 q 208 -77 260 -187 z"},"C":{"x_min":0,"x_max":455,"ha":455,"o":"m 423 8 q 402 0 382 -5 q 361 -9 340 -9 q 204 -9 118 90 q 33 189 33 350 q 33 517 116 620 q 200 722 334 722 q 359 722 381 718 q 403 714 423 705 l 423 572 q 402 580 383 584 q 364 588 345 588 q 274 588 229 525 q 185 462 185 358 q 185 258 231 196 q 276 134 348 134 q 366 134 385 138 q 404 143 423 151 z"},"W":{"x_min":0,"x_max":731,"ha":731,"o":"m 1 713 l 145 713 l 196 391 q 203 348 208 294 q 214 240 218 174 l 311 713 l 429 713 l 522 174 q 522 221 526 271 q 530 320 538 371 l 591 713 l 731 713 l 588 0 l 463 0 l 387 393 q 381 422 377 463 q 373 504 371 553 q 366 500 361 458 q 356 417 352 394 l 273 0 l 145 0 z"},"A":{"x_min":0,"x_max":465,"ha":465,"o":"m 186 236 l 281 236 q 266 311 254 392 q 243 474 234 565 q 223 485 211 403 q 199 320 186 236 z m -4 0 l 162 713 l 311 713 l 469 0 l 327 0 l 303 125 l 160 125 l 138 0 z"},"f":{"x_min":0,"x_max":259,"ha":259,"o":"m 250 761 l 250 648 q 247 648 244 649 q 240 649 235 649 q 210 649 201 635 q 192 622 192 560 l 192 479 l 250 479 l 250 378 l 192 378 l 192 0 l 60 0 l 60 378 l 12 378 l 12 479 l 60 479 l 60 606 q 60 654 66 678 q 72 702 86 720 q 104 743 133 754 q 161 766 199 766 q 208 766 221 765 q 233 764 250 761 z"},"Q":{"x_min":0,"x_max":565,"ha":565,"o":"m 305 273 l 372 199 q 382 229 386 266 q 391 304 391 355 q 391 470 364 529 q 336 587 282 587 q 227 587 200 527 q 173 467 173 343 q 173 236 200 180 q 228 124 281 124 q 285 124 291 125 q 296 125 303 126 l 228 209 z m 539 15 l 462 -52 l 395 22 q 373 7 345 0 q 317 -7 282 -7 q 164 -7 98 91 q 32 189 32 367 q 32 532 99 627 q 166 722 282 722 q 402 722 468 624 q 533 526 533 347 q 533 259 517 197 q 500 135 466 95 z"},"w":{"x_min":0,"x_max":579,"ha":579,"o":"m 341 479 l 380 273 q 383 252 388 216 q 392 179 397 132 q 402 176 407 215 q 413 254 416 275 l 453 479 l 581 479 l 455 0 l 341 0 l 306 199 q 304 211 299 254 q 294 296 289 359 l 287 335 q 275 211 273 199 l 238 0 l 124 0 l -2 479 l 126 479 l 162 275 q 164 266 174 185 q 178 152 181 132 q 185 173 189 210 q 194 246 199 273 l 237 479 z"},"-":{"x_min":0,"x_max":326,"ha":326,"o":"m 37 162 l 37 317 l 289 317 l 289 162 z"},"E":{"x_min":0,"x_max":396,"ha":396,"o":"m 56 0 l 56 713 l 356 713 l 356 581 l 194 581 l 194 437 l 341 437 l 341 306 l 194 306 l 194 139 l 356 139 l 356 0 z"},"s":{"x_min":0,"x_max":335,"ha":335,"o":"m 13 41 l 68 138 q 92 122 110 115 q 128 107 143 107 q 158 107 168 117 q 178 126 178 141 q 178 167 129 197 q 117 205 110 209 q 63 241 44 271 q 25 301 25 342 q 25 409 67 448 q 109 488 180 488 q 216 488 248 478 q 281 468 311 447 l 255 352 q 236 368 219 376 q 203 384 189 384 q 173 384 163 375 q 153 366 153 352 q 153 331 198 303 q 212 294 220 289 q 271 254 291 222 q 311 191 311 148 q 311 78 265 35 q 219 -9 145 -9 q 109 -9 76 3 q 43 16 13 41 z"},">":{"x_min":0,"x_max":833,"ha":833,"o":"m 129 574 l 704 337 l 704 259 l 129 23 l 129 112 l 585 298 l 129 484 z"},"l":{"x_min":0,"x_max":236,"ha":236,"o":"m 52 0 l 52 757 l 184 757 l 184 0 z"},"8":{"x_min":0,"x_max":440,"ha":440,"o":"m 139 387 l 139 393 q 95 404 72 443 q 49 481 49 544 q 49 629 93 676 q 138 722 220 722 q 302 722 347 676 q 391 629 391 544 q 391 482 368 443 q 344 404 301 393 l 301 387 q 354 373 383 324 q 411 276 411 200 q 411 102 360 47 q 310 -9 220 -9 q 130 -9 80 47 q 29 102 29 200 q 29 276 57 324 q 85 373 139 387 z m 219 611 q 195 611 183 593 q 172 576 172 538 q 172 493 183 474 q 194 455 220 455 q 245 455 257 473 q 268 492 268 533 q 268 573 256 592 q 244 611 219 611 z m 220 318 q 191 318 177 293 q 162 269 162 220 q 162 167 176 142 q 190 116 220 116 q 250 116 264 141 q 278 166 278 217 q 278 268 264 293 q 250 318 220 318 z"},"\\":{"x_min":0,"x_max":306,"ha":306,"o":"m 220 -93 l 0 722 l 86 722 l 306 -93 z"},"e":{"x_min":0,"x_max":428,"ha":428,"o":"m 293 280 q 292 333 274 358 q 257 383 222 383 q 188 383 170 356 q 152 330 152 280 z m 152 204 l 152 200 q 152 146 171 118 q 190 89 225 89 q 248 89 263 103 q 279 116 289 144 l 403 144 q 387 72 338 32 q 289 -9 218 -9 q 128 -9 76 58 q 23 125 23 239 q 23 354 76 421 q 128 488 218 488 q 312 488 361 422 q 409 356 409 227 l 409 204 z"},"b":{"x_min":0,"x_max":453,"ha":453,"o":"m 236 377 q 205 377 190 346 q 176 315 176 247 q 176 173 189 141 q 203 109 234 109 q 263 109 277 143 q 291 177 291 249 q 291 316 278 347 q 265 377 236 377 z m 50 0 l 50 757 l 177 757 l 177 411 q 198 448 224 466 q 250 484 281 484 q 350 484 386 419 q 422 354 422 229 q 422 117 385 53 q 348 -10 284 -10 q 249 -10 222 10 q 195 31 177 70 l 177 0 z"},"%":{"x_min":0,"x_max":819,"ha":819,"o":"m 188 -9 l 542 722 l 621 722 l 269 -9 z m 592 204 q 592 130 601 105 q 610 80 634 80 q 658 80 667 107 q 677 133 677 204 q 677 277 667 304 q 658 330 634 330 q 611 330 601 304 q 592 277 592 204 z m 776 205 q 776 101 740 46 q 703 -9 634 -9 q 565 -9 529 46 q 492 101 492 205 q 492 310 529 365 q 565 420 634 420 q 703 420 740 365 q 776 310 776 205 z m 135 509 q 135 437 145 411 q 154 385 178 385 q 201 385 211 411 q 220 437 220 509 q 220 583 211 609 q 202 634 178 634 q 154 634 145 607 q 135 581 135 509 z m 320 507 q 320 402 283 348 q 247 293 178 293 q 109 293 73 348 q 36 403 36 507 q 36 611 73 667 q 109 722 178 722 q 247 722 283 667 q 320 611 320 507 z"},"m":{"x_min":0,"x_max":656,"ha":656,"o":"m 48 0 l 48 479 l 170 479 l 170 405 q 195 445 226 464 q 257 484 296 484 q 335 484 359 464 q 384 444 392 405 q 420 445 451 465 q 481 484 517 484 q 569 484 590 448 q 611 412 611 299 l 611 0 l 481 0 l 481 290 q 481 331 472 346 q 463 362 442 362 q 416 362 405 345 q 394 328 394 284 l 394 0 l 265 0 l 265 290 q 265 330 256 346 q 247 363 226 363 q 200 363 188 345 q 177 327 177 284 l 177 0 z"},"#":{"x_min":0,"x_max":769,"ha":769,"o":"m 346 416 l 302 292 l 427 292 l 471 416 z m 359 713 l 452 713 l 377 500 l 499 500 l 575 713 l 668 713 l 593 500 l 735 500 l 706 416 l 563 416 l 519 293 l 670 293 l 640 209 l 490 209 l 414 -3 l 321 -3 l 397 209 l 274 209 l 197 -3 l 104 -3 l 180 209 l 34 209 l 64 293 l 209 293 l 253 416 l 99 416 l 129 500 l 283 500 z"},",":{"x_min":0,"x_max":220,"ha":220,"o":"m 0 -137 l 79 159 l 220 159 l 99 -137 z"},"n":{"x_min":0,"x_max":447,"ha":447,"o":"m 270 0 l 270 290 q 270 331 260 346 q 250 362 227 362 q 202 362 190 344 q 179 326 179 284 l 179 0 l 47 0 l 47 479 l 170 479 l 170 405 q 196 445 228 464 q 261 484 302 484 q 358 484 380 452 q 402 420 402 327 l 402 0 z"},"h":{"x_min":0,"x_max":447,"ha":447,"o":"m 270 0 l 270 290 q 270 331 260 346 q 250 362 227 362 q 202 362 190 344 q 179 326 179 284 l 179 0 l 47 0 l 47 757 l 179 757 l 179 421 q 206 453 236 469 q 266 484 302 484 q 358 484 380 453 q 402 421 402 327 l 402 0 z"},"z":{"x_min":0,"x_max":329,"ha":329,"o":"m 9 0 l 147 372 l 20 372 l 20 479 l 318 479 l 182 115 l 308 115 l 308 0 z"},"B":{"x_min":0,"x_max":488,"ha":488,"o":"m 194 417 l 209 417 q 264 417 289 438 q 315 460 315 505 q 315 552 289 575 q 263 597 208 597 l 194 597 z m 194 127 q 197 127 204 126 q 210 126 214 126 q 269 126 293 148 q 318 170 318 218 q 318 269 293 291 q 268 313 211 313 l 194 313 z m 56 0 l 56 713 l 195 713 q 334 713 392 669 q 450 625 450 523 q 450 465 428 427 q 406 390 360 367 q 412 349 436 309 q 461 269 461 204 q 461 156 445 116 q 429 77 398 50 q 367 23 324 11 q 281 0 188 0 z"},"K":{"x_min":0,"x_max":476,"ha":476,"o":"m 56 1 l 56 713 l 194 713 l 194 402 l 333 713 l 481 713 l 334 388 l 486 1 l 334 1 l 194 348 l 194 1 z"},"R":{"x_min":0,"x_max":459,"ha":459,"o":"m 194 404 q 196 404 202 403 q 208 403 210 403 q 256 403 280 429 q 303 455 303 505 q 303 556 282 580 q 260 603 213 603 q 206 603 202 603 q 198 603 194 602 z m 56 0 l 56 713 l 204 713 q 326 713 381 665 q 436 617 436 512 q 436 436 408 390 q 380 344 323 325 l 460 0 l 310 0 l 194 295 l 194 0 z"},"T":{"x_min":0,"x_max":389,"ha":389,"o":"m 123 0 l 123 581 l 14 581 l 14 713 l 375 713 l 375 581 l 266 581 l 266 0 z"},"P":{"x_min":0,"x_max":455,"ha":455,"o":"m 194 404 q 196 404 201 403 q 207 403 209 403 q 254 403 278 429 q 302 455 302 504 q 302 555 279 579 q 257 603 209 603 q 207 603 201 603 q 196 602 194 602 z m 56 0 l 56 713 l 204 713 q 322 713 379 662 q 436 611 436 506 q 436 406 381 350 q 326 295 226 295 q 213 295 207 295 q 200 295 194 296 l 194 0 z"},"|":{"x_min":0,"x_max":500,"ha":500,"o":"m 207 764 l 294 764 l 294 -236 l 207 -236 z"},"t":{"x_min":0,"x_max":257,"ha":257,"o":"m 62 0 l 62 376 l 10 376 l 10 479 l 62 479 l 62 617 l 194 617 l 194 479 l 246 479 l 246 376 l 194 376 l 194 0 z"},"M":{"x_min":0,"x_max":667,"ha":667,"o":"m 21 0 l 91 713 l 274 713 l 311 441 q 319 379 325 322 q 331 265 334 211 q 343 306 349 360 q 355 415 359 441 l 405 713 l 586 713 l 646 0 l 502 0 l 487 331 q 486 343 485 366 q 479 496 479 579 l 386 0 l 283 0 l 196 583 q 196 510 187 375 q 185 344 184 329 l 162 0 z"},"g":{"x_min":0,"x_max":453,"ha":453,"o":"m 275 479 l 403 479 l 403 36 q 403 -118 362 -169 q 321 -221 215 -221 q 131 -221 84 -177 q 38 -134 38 -55 l 38 -48 l 150 -48 q 150 -83 166 -100 q 182 -117 213 -117 q 247 -117 261 -99 q 275 -82 275 -36 l 275 63 q 252 29 226 12 q 200 -5 171 -5 q 103 -5 66 58 q 30 121 30 240 q 30 357 67 420 q 104 484 172 484 q 204 484 230 465 q 255 445 275 406 z m 275 247 q 275 317 261 347 q 248 377 216 377 q 187 377 174 346 q 161 315 161 246 q 161 177 176 143 q 190 109 219 109 q 249 109 262 140 q 275 172 275 247 z"},"j":{"x_min":0,"x_max":236,"ha":236,"o":"m 42 607 q 42 640 64 662 q 85 684 118 684 q 149 684 172 662 q 194 639 194 607 q 194 576 172 554 q 150 532 118 532 q 85 532 64 553 q 42 575 42 607 z m 52 -193 l 52 479 l 184 479 l 184 -193 z"},"i":{"x_min":0,"x_max":236,"ha":236,"o":"m 42 607 q 42 640 64 662 q 85 684 118 684 q 149 684 172 662 q 194 639 194 607 q 194 576 172 554 q 150 532 118 532 q 85 532 64 553 q 42 575 42 607 z m 52 0 l 52 479 l 184 479 l 184 0 z"},"y":{"x_min":0,"x_max":370,"ha":370,"o":"m 66 -193 l 125 0 l 1 479 l 131 479 l 177 267 q 181 247 184 224 q 187 201 187 177 q 193 229 196 247 q 199 265 201 275 l 245 479 l 375 479 l 195 -193 z"},"@":{"x_min":0,"x_max":1000,"ha":1000,"o":"m 573 138 q 546 96 511 76 q 475 56 425 56 q 351 56 311 98 q 272 141 272 220 q 272 334 339 413 q 407 492 502 492 q 545 492 575 475 q 604 458 623 423 l 650 475 l 725 475 l 653 189 q 652 187 652 183 q 649 169 649 165 q 649 146 662 135 q 675 124 696 124 q 721 124 748 139 q 776 154 800 180 q 835 217 854 267 q 872 316 872 372 q 872 496 781 573 q 689 650 542 650 q 475 650 417 635 q 359 620 312 589 q 224 534 176 447 q 128 360 128 254 q 128 102 230 10 q 333 -81 503 -81 q 584 -81 661 -57 q 738 -33 803 12 l 836 -36 q 763 -91 680 -119 q 598 -147 507 -147 q 413 -147 335 -124 q 258 -100 198 -54 q 123 3 85 80 q 48 157 48 255 q 48 335 73 408 q 99 480 148 541 q 220 628 321 674 q 421 719 545 719 q 626 719 699 697 q 771 675 823 635 q 888 585 920 520 q 952 455 952 373 q 952 294 920 226 q 889 157 830 110 q 796 83 757 69 q 717 55 675 55 q 623 55 598 75 q 573 95 573 136 z m 602 345 q 595 386 572 409 q 549 431 512 431 q 450 431 406 368 q 362 306 362 217 q 362 169 384 143 q 406 117 447 117 q 491 117 527 150 q 562 182 575 234 z"},".":{"x_min":0,"x_max":220,"ha":220,"o":"m 196 81 q 196 44 171 19 q 146 -6 110 -6 q 74 -6 49 19 q 24 44 24 81 q 24 118 49 142 q 74 167 110 167 q 146 167 171 142 q 196 118 196 81 z"},"p":{"x_min":0,"x_max":453,"ha":453,"o":"m 236 376 q 205 376 191 346 q 177 315 177 247 q 177 172 190 141 q 204 109 234 109 q 263 109 277 143 q 291 177 291 249 q 291 316 278 346 q 265 376 236 376 z m 50 -193 l 50 479 l 174 479 l 174 406 q 197 446 223 465 q 250 484 281 484 q 349 484 385 420 q 422 356 422 237 q 422 119 386 54 q 350 -11 284 -11 q 250 -11 222 10 q 195 30 177 70 l 177 -193 z"},"X":{"x_min":0,"x_max":422,"ha":422,"o":"m 294 0 l 238 145 q 229 167 222 194 q 215 221 210 250 q 205 220 198 194 q 192 167 185 145 l 136 0 l -26 0 l 139 361 l -11 713 l 138 713 l 192 563 q 196 551 202 530 q 207 510 214 477 q 220 505 226 527 q 231 549 237 563 l 290 713 l 437 713 l 287 361 l 448 0 z"},"*":{"x_min":0,"x_max":440,"ha":440,"o":"m 87 426 l 54 482 l 165 540 l 54 598 l 86 654 l 193 588 l 188 713 l 252 713 l 247 588 l 353 654 l 386 598 l 274 540 l 385 482 l 353 426 l 247 493 l 252 367 l 188 367 l 193 493 z"},"Y":{"x_min":0,"x_max":391,"ha":391,"o":"m 124 0 l 124 335 l -41 713 l 109 713 l 156 584 q 169 549 180 515 q 190 480 200 445 q 209 484 219 519 q 229 553 240 580 l 292 713 l 431 713 l 265 335 l 265 0 z"},"c":{"x_min":0,"x_max":318,"ha":318,"o":"m 300 343 q 284 354 270 360 q 255 365 240 365 q 202 365 180 332 q 157 299 157 243 q 157 184 180 152 q 203 120 244 120 q 260 120 273 126 q 287 132 300 145 l 300 19 q 279 5 257 -2 q 234 -9 209 -9 q 125 -9 75 58 q 26 125 26 240 q 26 354 76 421 q 125 488 209 488 q 233 488 255 483 q 278 479 300 469 z"},"!":{"x_min":0,"x_max":275,"ha":275,"o":"m 71 209 l 71 713 l 205 713 l 205 209 z m 224 77 q 224 40 199 16 q 175 -9 138 -9 q 102 -9 77 16 q 52 40 52 77 q 52 114 77 138 q 102 163 138 163 q 174 163 199 138 q 224 114 224 77 z"},"/":{"x_min":0,"x_max":306,"ha":306,"o":"m 220 722 l 306 722 l 86 -93 l 0 -93 z"},"[":{"x_min":0,"x_max":277,"ha":277,"o":"m 32 -194 l 32 736 l 259 736 l 259 635 l 167 635 l 167 -93 l 259 -93 l 259 -194 z"},"6":{"x_min":0,"x_max":440,"ha":440,"o":"m 222 116 q 249 116 263 144 q 277 172 277 226 q 277 284 265 311 q 252 338 226 338 q 197 338 184 309 q 171 280 171 218 q 171 167 184 142 q 196 116 222 116 z m 184 423 q 208 440 230 449 q 252 457 273 457 q 340 457 378 403 q 416 349 416 252 q 416 128 365 59 q 314 -10 223 -10 q 128 -10 77 54 q 26 119 26 238 q 26 354 118 545 l 126 561 l 199 713 l 336 713 l 222 489 q 211 468 202 452 q 192 435 184 423 z"},"r":{"x_min":0,"x_max":287,"ha":287,"o":"m 49 0 l 49 479 l 172 479 l 172 394 q 188 441 215 464 q 242 487 280 488 l 280 362 l 271 362 q 219 362 200 337 q 181 312 181 225 l 181 0 z"},"2":{"x_min":0,"x_max":440,"ha":440,"o":"m 31 0 l 206 341 q 238 403 256 457 q 273 510 273 544 q 273 578 260 596 q 246 614 221 614 q 185 614 172 585 q 158 556 158 470 l 42 470 q 42 475 41 481 q 41 487 41 499 q 41 608 89 665 q 137 722 229 722 q 308 722 354 675 q 401 627 401 546 q 401 491 377 424 q 353 357 284 233 l 223 123 l 383 123 l 383 0 z"},"{":{"x_min":0,"x_max":500,"ha":500,"o":"m 427 721 l 427 634 q 423 634 415 634 q 407 635 404 635 q 351 635 332 615 q 313 594 313 530 l 313 412 q 313 336 292 304 q 270 272 214 259 q 270 246 291 214 q 313 182 313 106 l 313 -11 q 313 -76 332 -96 q 352 -117 405 -117 q 408 -117 416 -117 q 423 -116 427 -116 l 427 -202 l 396 -202 q 346 -202 315 -196 q 284 -190 263 -178 q 235 -162 224 -131 q 213 -101 213 -32 l 213 89 q 213 159 187 188 q 162 217 100 217 q 97 217 90 216 q 83 216 79 216 l 79 303 q 83 303 90 302 q 97 302 100 302 q 162 302 187 331 q 213 359 213 429 l 213 550 q 213 621 224 651 q 235 681 263 697 q 285 710 316 716 q 348 721 405 721 z"},"9":{"x_min":0,"x_max":440,"ha":440,"o":"m 215 596 q 188 596 175 569 q 162 542 162 485 q 162 428 175 401 q 188 373 215 373 q 242 373 255 400 q 268 427 268 485 q 268 541 255 569 q 242 596 215 596 z m 258 289 q 234 271 212 262 q 190 253 167 253 q 100 253 62 309 q 24 366 24 465 q 24 589 75 656 q 125 722 221 722 q 312 722 362 656 q 412 591 412 473 q 412 355 325 166 l 319 152 l 250 0 l 112 0 l 222 223 q 223 224 224 228 q 239 259 258 289 z"}," ":{"x_min":0,"x_max":220,"ha":220,"o":""},"I":{"x_min":0,"x_max":270,"ha":270,"o":"m 62 0 l 62 713 l 207 713 l 207 0 z"},"H":{"x_min":0,"x_max":553,"ha":553,"o":"m 56 0 l 56 713 l 197 713 l 197 449 l 356 449 l 356 713 l 498 713 l 498 0 l 356 0 l 356 310 l 197 310 l 197 0 z"},"4":{"x_min":0,"x_max":440,"ha":440,"o":"m 120 284 l 239 284 l 239 486 q 239 495 240 513 q 241 532 244 581 q 232 540 220 505 q 208 470 196 445 z m 234 0 l 234 177 l 29 177 l 29 284 l 216 713 l 353 713 l 353 284 l 411 284 l 411 177 l 353 177 l 353 0 z"},"~":{"x_min":0,"x_max":833,"ha":833,"o":"m 747 383 l 747 293 q 697 258 651 241 q 604 224 561 224 q 540 224 516 228 q 492 232 468 241 q 456 245 431 254 q 327 290 275 290 q 235 290 190 271 q 145 253 87 212 l 87 303 q 139 338 186 356 q 232 373 276 373 q 306 373 337 367 q 368 361 419 344 q 426 342 440 336 q 520 308 562 308 q 604 308 648 326 q 693 344 747 383 z"},"D":{"x_min":0,"x_max":538,"ha":538,"o":"m 197 132 l 208 132 q 284 132 324 189 q 364 246 364 354 q 364 470 325 527 q 286 583 206 583 l 197 583 z m 56 0 l 56 713 l 178 713 q 343 713 425 625 q 506 536 506 356 q 506 248 476 174 q 446 101 383 53 q 345 24 298 12 q 250 0 163 0 z"},"^":{"x_min":0,"x_max":1000,"ha":1000,"o":"m 447 713 l 553 713 l 795 439 l 694 439 l 500 633 l 305 439 l 204 439 z"},"0":{"x_min":0,"x_max":440,"ha":440,"o":"m 161 355 q 161 219 174 170 q 188 120 220 120 q 252 120 265 169 q 278 218 278 355 q 278 495 265 544 q 252 593 220 593 q 188 593 174 543 q 161 493 161 355 z m 414 356 q 414 179 364 85 q 314 -9 220 -9 q 126 -9 76 85 q 26 179 26 356 q 26 535 76 628 q 125 722 220 722 q 314 722 364 628 q 414 535 414 356 z"},"F":{"x_min":0,"x_max":390,"ha":390,"o":"m 56 0 l 56 713 l 364 713 l 364 581 l 194 581 l 194 433 l 349 433 l 349 302 l 194 302 l 194 0 z"},"`":{"x_min":0,"x_max":500,"ha":500,"o":"m 112 725 l 232 725 l 323 544 l 258 544 z"},"k":{"x_min":0,"x_max":419,"ha":419,"o":"m 181 282 q 186 295 203 331 q 207 339 209 343 l 277 479 l 426 479 l 306 280 l 435 0 l 288 0 l 181 261 l 181 0 l 49 0 l 49 757 l 181 757 z"},"u":{"x_min":0,"x_max":441,"ha":441,"o":"m 396 479 l 396 231 q 396 87 358 39 q 320 -9 221 -9 q 122 -9 83 39 q 45 87 45 231 l 45 479 l 174 479 l 174 171 q 174 133 184 120 q 194 107 220 107 q 246 107 257 121 q 267 134 267 171 l 267 479 z"},"]":{"x_min":0,"x_max":277,"ha":277,"o":"m 244 -194 l 17 -194 l 17 -93 l 110 -93 l 110 635 l 17 635 l 17 736 l 244 736 z"},"U":{"x_min":0,"x_max":549,"ha":549,"o":"m 497 713 l 497 265 q 497 183 492 149 q 487 114 476 92 q 450 41 401 16 q 352 -9 275 -9 q 198 -9 148 16 q 99 41 73 92 q 62 115 57 149 q 52 184 52 265 l 52 286 l 52 713 l 194 713 l 194 254 q 194 167 212 141 q 229 116 275 116 q 321 116 339 142 q 356 167 356 254 l 356 713 z"},"o":{"x_min":0,"x_max":444,"ha":444,"o":"m 222 107 q 257 107 277 142 q 296 177 296 241 q 296 305 277 340 q 257 375 222 375 q 187 375 168 340 q 149 306 149 241 q 149 176 168 142 q 187 107 222 107 z m 422 240 q 422 126 367 59 q 313 -9 222 -9 q 131 -9 77 58 q 23 125 23 240 q 23 354 77 421 q 131 488 222 488 q 313 488 368 421 q 422 354 422 240 z"},"N":{"x_min":0,"x_max":554,"ha":554,"o":"m 56 0 l 56 713 l 200 713 l 344 329 q 351 311 362 272 q 374 234 388 182 q 377 258 372 321 q 366 384 366 439 l 366 713 l 498 713 l 498 0 l 366 0 l 210 399 q 206 408 189 472 q 182 501 177 518 q 182 476 185 424 q 187 372 187 300 l 187 0 z"},"+":{"x_min":0,"x_max":833,"ha":833,"o":"m 375 596 l 458 596 l 458 339 l 709 339 l 709 258 l 458 258 l 458 0 l 375 0 l 375 258 l 124 258 l 124 339 l 375 339 z"},"G":{"x_min":0,"x_max":556,"ha":556,"o":"m 258 403 l 523 403 q 523 397 523 386 q 524 375 524 370 q 524 191 458 91 q 393 -9 277 -9 q 164 -9 98 89 q 32 187 32 356 q 32 526 101 624 q 169 722 287 722 q 367 722 423 675 q 479 628 505 539 l 377 480 q 369 533 345 560 q 322 586 284 586 q 227 586 200 531 q 174 475 174 356 q 174 242 202 184 q 230 125 284 125 q 332 125 358 165 q 385 205 385 277 l 258 277 z"},"q":{"x_min":0,"x_max":453,"ha":453,"o":"m 275 247 q 275 315 261 346 q 247 376 216 376 q 187 376 174 345 q 161 314 161 245 q 161 177 176 143 q 190 109 219 109 q 249 109 262 140 q 275 172 275 247 z m 403 -193 l 275 -193 l 275 70 q 256 29 229 9 q 203 -11 168 -11 q 103 -11 66 54 q 30 119 30 237 q 30 356 67 420 q 104 484 172 484 q 204 484 230 465 q 256 446 279 406 l 279 479 l 403 479 z"},"d":{"x_min":0,"x_max":453,"ha":453,"o":"m 275 247 q 275 316 261 346 q 247 377 216 377 q 187 377 174 346 q 161 315 161 246 q 161 177 176 143 q 190 109 219 109 q 249 109 262 140 q 275 172 275 247 z m 403 0 l 275 0 l 275 70 q 256 30 229 10 q 203 -10 168 -10 q 102 -10 66 55 q 30 120 30 239 q 30 356 67 420 q 104 484 172 484 q 203 484 228 466 q 254 448 275 411 l 275 757 l 403 757 z"},"1":{"x_min":0,"x_max":440,"ha":440,"o":"m 164 0 l 164 595 l 96 595 l 96 713 l 301 713 l 301 0 z"},"5":{"x_min":0,"x_max":440,"ha":440,"o":"m 28 19 l 46 148 q 72 132 99 124 q 125 116 149 116 q 202 116 231 146 q 260 176 260 231 q 260 295 215 329 q 171 363 87 363 q 78 363 58 361 q 54 361 51 361 l 100 713 l 378 713 l 378 592 l 199 592 l 181 462 l 186 462 q 287 462 343 404 q 400 346 400 244 q 400 127 337 59 q 274 -9 166 -9 q 125 -9 92 -2 q 58 5 28 19 z"}}}
